<?xml version="1.0" encoding="utf-8"?>
<!-- Generator: Adobe Illustrator 16.0.0, SVG Export Plug-In . SVG Version: 6.00 Build 0)  -->
<!DOCTYPE svg PUBLIC "-//W3C//DTD SVG 1.1//EN" "http://www.w3.org/Graphics/SVG/1.1/DTD/svg11.dtd">
<svg version="1.1" id="Layer_2" xmlns="http://www.w3.org/2000/svg" xmlns:xlink="http://www.w3.org/1999/xlink" x="0px" y="0px"
	 width="500px" height="500px" viewBox="0 0 864 864" enable-background="new 0 0 864 864" xml:space="preserve">
<g>
	<g>
		<path fill="#991A00" d="M256.212,274.671c-0.987-6.364-2.945-12.459-5.149-18.486c-1.641-4.483-3.335-8.95-4.851-13.477
			c-1.33-3.97-2.169-8.058-2.126-12.283c0.038-3.613,0.744-7.084,2.179-10.403c0.08-0.185,0.115-0.39,0.171-0.586
			c0.583-1.096,1.167-2.192,1.749-3.288c0.084-0.088,0.185-0.165,0.251-0.265c1.828-2.747,4.177-4.939,7.074-6.512
			c4.455-2.418,9.182-3.13,14.142-2.034c1.261,0.279,2.482,0.738,3.722,1.115c0.986,0.524,1.973,1.049,2.959,1.574
			c0.274,0.211,0.546,0.425,0.823,0.632c4.409,3.285,7.114,7.628,8.088,13.042c0.094,0.521,0.157,1.05,0.244,1.63
			c0.252-0.118,0.454-0.208,0.651-0.307c4.486-2.222,9.164-2.81,14.037-1.608c1.055,0.261,2.082,0.633,3.123,0.955
			c0.986,0.524,1.974,1.049,2.96,1.574c0.988,0.805,2.033,1.551,2.958,2.425c3.781,3.573,5.861,7.988,6.28,13.163
			c0.415,5.119-1.122,9.686-4.024,13.862c-3.466,4.986-8.27,8.156-13.837,10.307c-4.373,1.687-8.915,2.794-13.458,3.889
			c-5.771,1.393-11.562,2.735-17.096,4.923c-2.991,1.183-5.873,2.645-8.802,3.984c-0.068,0.031-1.307,0.497-1.364,0.553
			C256.915,279.05,256.375,275.723,256.212,274.671z"/>
	</g>
	<g>
		<path fill="#991A00" d="M285.06,444.802c-5.031-4.022-10.595-7.188-16.294-10.138c-4.24-2.194-8.51-4.339-12.686-6.649
			c-3.665-2.025-7.047-4.469-9.873-7.611c-2.416-2.688-4.242-5.722-5.43-9.138c-0.066-0.19-0.179-0.364-0.27-0.548
			c-0.312-1.201-0.623-2.403-0.936-3.605c0.003-0.122,0.025-0.247,0.007-0.365c-0.511-3.26-0.263-6.464,0.809-9.581
			c1.647-4.794,4.647-8.514,9.043-11.061c1.118-0.647,2.327-1.134,3.495-1.695c1.082-0.281,2.163-0.562,3.245-0.841
			c0.345-0.03,0.69-0.057,1.034-0.091c5.469-0.561,10.398,0.809,14.777,4.14c0.422,0.32,0.825,0.667,1.281,1.035
			c0.105-0.257,0.194-0.46,0.273-0.666c1.803-4.671,4.852-8.267,9.254-10.677c0.953-0.521,1.961-0.941,2.945-1.408
			c1.082-0.281,2.164-0.562,3.245-0.842c1.272-0.075,2.546-0.232,3.817-0.213c5.203,0.076,9.721,1.921,13.528,5.451
			c3.768,3.491,5.724,7.895,6.409,12.934c0.818,6.017-0.578,11.601-3.227,16.95c-2.079,4.199-4.676,8.086-7.285,11.965
			c-3.309,4.928-6.668,9.834-9.265,15.188c-1.404,2.894-2.538,5.92-3.79,8.887c-0.029,0.069-0.627,1.25-0.632,1.33
			C288.538,447.553,285.891,445.466,285.06,444.802z"/>
	</g>
	<g>
		<path fill="#991A00" d="M184.152,449.126c-3.214,5.584-5.499,11.562-7.551,17.642c-1.527,4.525-3,9.07-4.649,13.55
			c-1.446,3.929-3.35,7.642-6.027,10.911c-2.291,2.795-5.013,5.061-8.209,6.752c-0.179,0.093-0.334,0.231-0.501,0.35
			c-1.14,0.49-2.281,0.98-3.421,1.472c-0.121,0.015-0.248,0.012-0.362,0.049c-3.145,0.998-6.35,1.238-9.593,0.652
			c-4.989-0.9-9.12-3.304-12.304-7.262c-0.809-1.007-1.475-2.13-2.206-3.199c-0.441-1.025-0.882-2.053-1.322-3.079
			c-0.083-0.336-0.161-0.673-0.247-1.009c-1.384-5.32-0.777-10.401,1.852-15.233c0.252-0.466,0.533-0.917,0.829-1.424
			c-0.27-0.065-0.484-0.122-0.7-0.169c-4.89-1.074-8.906-3.542-11.956-7.528c-0.66-0.862-1.229-1.796-1.838-2.698
			c-0.441-1.026-0.883-2.053-1.323-3.08c-0.268-1.246-0.616-2.482-0.79-3.742c-0.713-5.153,0.426-9.898,3.338-14.197
			c2.879-4.254,6.936-6.854,11.813-8.295c5.824-1.722,11.554-1.188,17.244,0.618c4.466,1.42,8.701,3.398,12.931,5.388
			c5.372,2.525,10.731,5.101,16.417,6.856c3.072,0.95,6.236,1.612,9.358,2.399c0.073,0.019,1.331,0.431,1.41,0.423
			C186.344,445.271,184.683,448.204,184.152,449.126z"/>
	</g>
	<g>
		<path fill="#991A00" d="M375.832,711.564c-6.8-3.673-14.047-6.222-21.406-8.487c-5.478-1.685-10.976-3.305-16.402-5.14
			c-4.76-1.607-9.275-3.771-13.285-6.877c-3.428-2.656-6.232-5.85-8.363-9.629c-0.119-0.21-0.291-0.393-0.436-0.59
			c-0.626-1.351-1.25-2.704-1.875-4.057c-0.023-0.145-0.023-0.295-0.07-0.432c-1.301-3.74-1.692-7.577-1.094-11.486
			c0.92-6.013,3.667-11.047,8.312-14.994c1.182-1.002,2.506-1.836,3.766-2.748c1.217-0.562,2.434-1.125,3.652-1.688
			c0.4-0.109,0.801-0.215,1.199-0.328c6.34-1.833,12.453-1.268,18.336,1.728c0.566,0.288,1.117,0.611,1.734,0.949
			c0.07-0.326,0.131-0.585,0.18-0.845c1.13-5.9,3.961-10.799,8.645-14.586c1.015-0.818,2.116-1.531,3.178-2.291
			c1.217-0.562,2.434-1.127,3.651-1.688c1.486-0.359,2.958-0.819,4.464-1.067c6.158-1.021,11.888,0.191,17.139,3.544
			c5.195,3.317,8.444,8.1,10.331,13.903c2.254,6.93,1.8,13.82-0.184,20.704c-1.559,5.403-3.795,10.55-6.045,15.686
			c-2.854,6.526-5.771,13.038-7.693,19.914c-1.04,3.717-1.733,7.532-2.577,11.305c-0.02,0.088-0.472,1.609-0.46,1.705
			C380.528,714.069,376.955,712.171,375.832,711.564z"/>
	</g>
	<g>
		<path fill="#991A00" d="M319.375,461.042c2.66-8.888,3.891-18.022,4.761-27.222c0.645-6.847,1.21-13.702,2.046-20.526
			c0.729-5.983,2.173-11.815,4.845-17.284c2.288-4.675,5.357-8.748,9.279-12.173c0.217-0.189,0.39-0.436,0.586-0.654
			c1.436-1.064,2.873-2.128,4.311-3.19c0.164-0.062,0.34-0.1,0.49-0.188c4.078-2.438,8.491-3.832,13.229-4.081
			c7.29-0.383,13.875,1.618,19.643,6.116c1.464,1.144,2.768,2.498,4.146,3.756c0.958,1.293,1.915,2.585,2.873,3.881
			c0.226,0.444,0.447,0.889,0.678,1.329c3.697,7.003,4.52,14.324,2.434,21.965c-0.201,0.736-0.446,1.462-0.694,2.27
			c0.401,0.003,0.72,0.013,1.038,0.007c7.208-0.11,13.652,2.024,19.243,6.606c1.21,0.992,2.315,2.112,3.465,3.176
			c0.959,1.292,1.917,2.585,2.874,3.877c0.785,1.661,1.683,3.277,2.341,4.987c2.7,6.988,2.67,14.015,0.009,21.002
			c-2.633,6.912-7.461,11.895-13.821,15.524c-7.595,4.337-15.801,5.48-24.373,4.824c-6.729-0.516-13.321-1.889-19.903-3.283
			c-8.365-1.763-16.726-3.607-25.273-4.19c-4.621-0.315-9.272-0.202-13.91-0.275c-0.109-0.001-2.007-0.163-2.116-0.126
			C317.576,467.168,318.937,462.509,319.375,461.042z"/>
	</g>
	<g>
		<path fill="#991A00" d="M372.957,150.636c-6.497,6.622-11.846,14.129-16.905,21.861c-3.763,5.756-7.46,11.557-11.381,17.204
			c-3.436,4.953-7.432,9.438-12.346,13.03c-4.204,3.068-8.818,5.241-13.885,6.442c-0.281,0.065-0.548,0.203-0.823,0.305
			c-1.767,0.271-3.534,0.543-5.302,0.812c-0.174-0.021-0.347-0.071-0.521-0.062c-4.745,0.256-9.298-0.569-13.606-2.559
			c-6.627-3.061-11.52-7.902-14.525-14.571c-0.762-1.693-1.284-3.5-1.915-5.255c-0.246-1.591-0.489-3.18-0.732-4.772
			c0.008-0.499,0.019-0.995,0.021-1.492c-0.005-7.919,2.681-14.779,8.089-20.565c0.521-0.558,1.076-1.085,1.673-1.684
			c-0.354-0.191-0.632-0.348-0.916-0.49c-6.428-3.264-11.133-8.157-13.942-14.818c-0.608-1.441-1.062-2.947-1.584-4.425
			c-0.246-1.59-0.49-3.181-0.735-4.77c0.081-1.835,0.04-3.685,0.255-5.504c0.871-7.44,4.174-13.643,9.785-18.583
			c5.552-4.887,12.147-7.042,19.467-7.288c8.741-0.295,16.533,2.521,23.81,7.098c5.712,3.595,10.903,7.883,16.076,12.187
			c6.577,5.459,13.114,10.99,20.403,15.491c3.94,2.435,8.108,4.503,12.177,6.73c0.096,0.052,1.699,1.08,1.812,1.099
			C377.405,146.057,374.028,149.543,372.957,150.636z"/>
	</g>
	<g>
		<path fill="#991A00" d="M147.848,271.519c-8.939-2.48-18.099-3.527-27.313-4.212c-6.857-0.507-13.723-0.935-20.562-1.633
			c-5.997-0.607-11.857-1.935-17.378-4.495c-4.72-2.193-8.854-5.18-12.357-9.032c-0.194-0.213-0.443-0.381-0.666-0.573
			c-1.093-1.413-2.185-2.828-3.277-4.246c-0.065-0.162-0.106-0.337-0.198-0.486c-2.52-4.027-4.002-8.411-4.346-13.144
			c-0.53-7.281,1.338-13.905,5.719-19.763c1.114-1.487,2.442-2.818,3.672-4.221c1.273-0.983,2.546-1.966,3.822-2.95
			c0.44-0.234,0.88-0.465,1.315-0.704c6.927-3.837,14.23-4.808,21.911-2.876c0.74,0.187,1.471,0.417,2.283,0.648
			c-0.005-0.402-0.001-0.721-0.014-1.038c-0.255-7.205,1.749-13.69,6.218-19.372c0.967-1.23,2.065-2.357,3.105-3.529
			c1.272-0.983,2.546-1.968,3.818-2.951c1.645-0.817,3.244-1.748,4.94-2.439c6.933-2.84,13.957-2.952,20.997-0.433
			c6.964,2.492,12.043,7.22,15.8,13.506c4.489,7.506,5.798,15.687,5.314,24.271c-0.381,6.737-1.621,13.356-2.883,19.965
			c-1.593,8.398-3.27,16.796-3.68,25.353c-0.223,4.627-0.016,9.275,0.004,13.913c0.002,0.109-0.123,2.01-0.083,2.118
			C154.008,273.194,149.323,271.927,147.848,271.519z"/>
	</g>
	<g>
		<path fill="#991A00" d="M203.225,218.971c-5.011-7.808-11.139-14.692-17.552-21.345c-4.774-4.95-9.608-9.844-14.241-14.924
			c-4.064-4.45-7.549-9.345-9.958-14.935c-2.057-4.78-3.147-9.762-3.191-14.969c-0.003-0.288-0.077-0.58-0.114-0.871
			c0.127-1.782,0.257-3.565,0.388-5.349c0.06-0.165,0.146-0.323,0.177-0.495c0.807-4.683,2.623-8.939,5.521-12.696
			c4.458-5.78,10.267-9.473,17.437-10.919c1.822-0.366,3.699-0.473,5.55-0.698c1.606,0.115,3.209,0.23,4.816,0.348
			c0.483,0.119,0.966,0.24,1.45,0.352c7.721,1.757,13.812,5.901,18.25,12.461c0.428,0.632,0.819,1.291,1.271,2.005
			c0.265-0.303,0.479-0.539,0.681-0.783c4.612-5.541,10.43-9.04,17.549-10.297c1.541-0.271,3.109-0.38,4.666-0.56
			c1.605,0.114,3.21,0.229,4.814,0.345c1.771,0.487,3.582,0.859,5.309,1.473c7.061,2.504,12.372,7.104,15.94,13.674
			c3.529,6.5,4.164,13.41,2.774,20.6c-1.656,8.587-6.135,15.558-12.216,21.634c-4.774,4.77-10.11,8.877-15.456,12.962
			c-6.787,5.198-13.633,10.34-19.644,16.446c-3.249,3.3-6.193,6.904-9.271,10.375c-0.071,0.083-1.431,1.416-1.474,1.523
			C206.701,224.327,204.053,220.259,203.225,218.971z"/>
	</g>
	<g>
		<path fill="#991A00" d="M355.921,264.654c5.594,7.402,12.229,13.799,19.131,19.942c5.139,4.57,10.332,9.082,15.34,13.792
			c4.393,4.127,8.24,8.742,11.068,14.131c2.416,4.61,3.885,9.494,4.325,14.682c0.024,0.287,0.12,0.572,0.181,0.859
			c0.01,1.788,0.017,3.576,0.021,5.364c-0.046,0.169-0.12,0.333-0.138,0.507c-0.446,4.73-1.933,9.112-4.536,13.08
			c-4.004,6.104-9.513,10.229-16.552,12.219c-1.788,0.504-3.651,0.754-5.48,1.12c-1.61,0.008-3.217,0.015-4.829,0.021
			c-0.49-0.081-0.98-0.166-1.472-0.24c-7.833-1.162-14.224-4.829-19.149-11.031c-0.475-0.598-0.914-1.225-1.419-1.902
			c-0.24,0.322-0.437,0.574-0.62,0.833c-4.175,5.876-9.708,9.81-16.709,11.606c-1.517,0.389-3.072,0.616-4.611,0.914
			c-1.608,0.01-3.218,0.018-4.826,0.024c-1.803-0.351-3.637-0.583-5.405-1.063c-7.231-1.958-12.878-6.139-16.938-12.416
			c-4.016-6.213-5.176-13.053-4.34-20.328c0.997-8.689,4.93-15.982,10.529-22.504c4.396-5.12,9.404-9.623,14.422-14.104
			c6.369-5.701,12.803-11.351,18.33-17.897c2.987-3.539,5.648-7.356,8.451-11.052c0.065-0.087,1.318-1.521,1.354-1.631
			C352.048,259.579,354.999,263.432,355.921,264.654z"/>
	</g>
	<g>
		<path fill="#991A00" d="M333.48,501.543c9.099,6.415,19.023,11.299,29.157,15.796c7.545,3.345,15.129,6.603,22.575,10.154
			c6.529,3.111,12.616,6.978,17.819,12.103c4.446,4.385,7.911,9.431,10.312,15.199c0.133,0.318,0.347,0.609,0.521,0.916
			c0.663,2.039,1.325,4.08,1.986,6.122c0.009,0.21-0.017,0.425,0.027,0.63c1.22,5.569,1.124,11.121-0.401,16.608
			c-2.342,8.439-7.131,15.17-14.447,20.019c-1.86,1.229-3.898,2.196-5.855,3.284c-1.836,0.598-3.67,1.192-5.51,1.789
			c-0.592,0.087-1.183,0.17-1.771,0.264c-9.379,1.538-18.022-0.317-25.921-5.604c-0.761-0.51-1.493-1.065-2.318-1.656
			c-0.155,0.457-0.288,0.815-0.402,1.179c-2.623,8.243-7.51,14.763-14.854,19.376c-1.591,0.999-3.286,1.828-4.936,2.731
			c-1.835,0.6-3.672,1.197-5.508,1.792c-2.188,0.259-4.369,0.666-6.566,0.762c-8.98,0.408-16.963-2.305-23.899-7.995
			c-6.86-5.631-10.69-13.025-12.394-21.646c-2.039-10.296-0.213-20.068,3.804-29.57c3.151-7.461,7.227-14.438,11.323-21.395
			c5.195-8.846,10.481-17.656,14.404-27.159c2.121-5.138,3.766-10.473,5.617-15.722c0.043-0.124,0.951-2.222,0.949-2.36
			C327.195,497.159,331.979,500.484,333.48,501.543z"/>
	</g>
	<g>
		<path fill="#991A00" d="M297.651,486.399c-2.681,10.806-3.636,21.825-4.153,32.899c-0.383,8.244-0.671,16.494-1.281,24.721
			c-0.534,7.213-1.931,14.287-4.821,20.994c-2.476,5.732-5.922,10.791-10.428,15.121c-0.249,0.238-0.442,0.543-0.665,0.816
			c-1.66,1.357-3.322,2.715-4.986,4.07c-0.192,0.086-0.401,0.139-0.576,0.254c-4.749,3.156-9.958,5.078-15.625,5.646
			c-8.714,0.877-16.723-1.148-23.894-6.209c-1.82-1.289-3.46-2.838-5.183-4.268c-1.223-1.494-2.441-2.988-3.664-4.486
			c-0.296-0.52-0.588-1.041-0.888-1.555c-4.833-8.184-6.236-16.912-4.173-26.189c0.199-0.893,0.452-1.777,0.704-2.76
			c-0.483,0.02-0.865,0.025-1.245,0.051c-8.633,0.543-16.48-1.648-23.442-6.82c-1.508-1.121-2.895-2.4-4.335-3.609
			c-1.224-1.494-2.447-2.988-3.666-4.484c-1.035-1.945-2.205-3.83-3.09-5.844c-3.635-8.222-4-16.645-1.21-25.172
			c2.761-8.436,8.265-14.685,15.682-19.396c8.856-5.633,18.626-7.473,28.938-7.173c8.096,0.232,16.075,1.502,24.044,2.799
			c10.127,1.636,20.255,3.369,30.533,3.581c5.557,0.114,11.125-0.286,16.688-0.463c0.132-0.006,2.415,0.081,2.544,0.029
			C299.459,478.953,298.094,484.615,297.651,486.399z"/>
	</g>
	<g>
		<path fill="#991A00" d="M209.05,436.857c-12.672-4.229-25.764-6.414-38.964-8.082c-9.826-1.237-19.667-2.361-29.452-3.87
			c-8.578-1.319-16.908-3.661-24.658-7.753c-6.625-3.503-12.35-8.105-17.102-13.904c-0.262-0.32-0.609-0.58-0.916-0.873
			c-1.466-2.114-2.932-4.23-4.396-6.35c-0.084-0.238-0.128-0.493-0.249-0.714c-3.325-5.979-5.134-12.393-5.276-19.225
			c-0.225-10.509,2.954-19.897,9.688-27.997c1.713-2.056,3.722-3.871,5.595-5.796c1.903-1.321,3.806-2.64,5.714-3.96
			c0.65-0.305,1.301-0.604,1.943-0.915c10.248-5.007,20.821-5.86,31.725-2.514c1.05,0.322,2.084,0.708,3.236,1.102
			c0.021-0.578,0.05-1.036,0.055-1.493c0.167-10.379,3.531-19.56,10.377-27.398c1.482-1.697,3.144-3.235,4.729-4.844
			c1.9-1.322,3.806-2.644,5.71-3.962c2.426-1.054,4.791-2.274,7.283-3.144c10.179-3.571,20.29-3.211,30.228,0.933
			c9.828,4.101,16.785,11.275,21.72,20.595c5.9,11.128,7.178,22.989,5.844,35.296c-1.044,9.663-3.317,19.088-5.621,28.499
			c-2.916,11.959-5.947,23.911-7.172,36.187c-0.663,6.638-0.71,13.336-1.025,20.008c-0.006,0.157-0.325,2.883-0.275,3.041
			C217.787,439.724,211.142,437.555,209.05,436.857z"/>
	</g>
	<g>
		<path fill="#991A00" d="M118.878,304.646c-4.108,3.113-7.655,6.805-11.061,10.646c-2.536,2.858-5.038,5.748-7.649,8.535
			c-2.29,2.444-4.85,4.586-7.84,6.161c-2.559,1.346-5.271,2.167-8.154,2.417c-0.16,0.013-0.318,0.066-0.478,0.102
			c-0.993,0.005-1.986,0.011-2.979,0.018c-0.094-0.027-0.186-0.069-0.281-0.077c-2.628-0.245-5.064-1.067-7.271-2.509
			c-3.395-2.218-5.69-5.276-6.802-9.185c-0.282-0.994-0.423-2.029-0.629-3.045c-0.005-0.893-0.01-1.787-0.014-2.681
			c0.043-0.273,0.091-0.546,0.132-0.82c0.638-4.351,2.669-7.905,6.112-10.647c0.331-0.265,0.679-0.509,1.055-0.791
			c-0.179-0.133-0.319-0.241-0.463-0.343c-3.269-2.315-5.458-5.385-6.463-9.273c-0.217-0.841-0.346-1.706-0.513-2.561
			c-0.005-0.894-0.011-1.787-0.015-2.682c0.191-1.002,0.319-2.021,0.584-3.003c1.081-4.02,3.398-7.161,6.884-9.42
			c3.447-2.237,7.246-2.888,11.289-2.43c4.828,0.546,8.884,2.725,12.513,5.829c2.848,2.438,5.352,5.216,7.849,8
			c3.171,3.535,6.318,7.103,9.959,10.168c1.968,1.657,4.092,3.131,6.148,4.685c0.048,0.037,0.847,0.732,0.907,0.751
			C121.694,302.489,119.557,304.131,118.878,304.646z"/>
	</g>
	<g>
		<path fill="#991A00" d="M265.111,346.775c-3.349-3.92-7.243-7.242-11.277-10.416c-3.003-2.363-6.035-4.691-8.971-7.135
			c-2.573-2.143-4.863-4.572-6.61-7.465c-1.493-2.475-2.473-5.134-2.891-7.998c-0.022-0.159-0.085-0.313-0.13-0.471
			c-0.063-0.991-0.127-1.981-0.194-2.974c0.022-0.096,0.059-0.189,0.061-0.285c0.089-2.639,0.768-5.118,2.077-7.406
			c2.015-3.52,4.933-5.991,8.77-7.33c0.975-0.34,2-0.543,3.003-0.808c0.891-0.057,1.783-0.114,2.674-0.171
			c0.275,0.027,0.551,0.059,0.826,0.083c4.381,0.381,8.05,2.2,10.988,5.476c0.284,0.315,0.548,0.647,0.851,1.006
			c0.122-0.186,0.222-0.332,0.315-0.481c2.119-3.398,5.055-5.766,8.877-6.997c0.827-0.267,1.683-0.446,2.526-0.663
			c0.893-0.058,1.783-0.115,2.677-0.173c1.011,0.132,2.036,0.2,3.032,0.407c4.076,0.842,7.348,2.972,9.809,6.317
			c2.436,3.31,3.309,7.064,3.09,11.127c-0.262,4.851-2.199,9.028-5.084,12.834c-2.267,2.986-4.893,5.648-7.525,8.303
			c-3.342,3.375-6.719,6.727-9.564,10.541c-1.539,2.062-2.885,4.268-4.314,6.412c-0.034,0.051-0.682,0.889-0.697,0.949
			C267.429,349.458,265.665,347.421,265.111,346.775z"/>
	</g>
	<g>
		<path fill="#991A00" d="M387.779,222.416c-3.605-2.002-7.453-3.404-11.364-4.656c-2.912-0.933-5.834-1.829-8.719-2.84
			c-2.528-0.886-4.922-2.068-7.041-3.748c-1.811-1.438-3.29-3.156-4.404-5.186c-0.061-0.113-0.151-0.211-0.229-0.316
			c-0.325-0.726-0.649-1.451-0.976-2.176c-0.011-0.077-0.01-0.158-0.036-0.23c-0.668-2.003-0.854-4.051-0.512-6.132
			c0.527-3.202,2.022-5.87,4.524-7.946c0.636-0.527,1.349-0.966,2.025-1.444c0.651-0.292,1.305-0.585,1.957-0.876
			c0.214-0.057,0.43-0.11,0.643-0.169c3.391-0.938,6.649-0.601,9.767,1.033c0.302,0.156,0.592,0.332,0.92,0.517
			c0.04-0.174,0.073-0.312,0.101-0.45c0.638-3.14,2.177-5.734,4.699-7.727c0.545-0.431,1.137-0.804,1.708-1.202
			c0.652-0.293,1.305-0.586,1.957-0.878c0.796-0.185,1.583-0.419,2.388-0.543c3.291-0.509,6.338,0.173,9.118,1.993
			c2.751,1.801,4.455,4.37,5.426,7.478c1.16,3.709,0.876,7.382-0.222,11.041c-0.865,2.871-2.089,5.602-3.32,8.327
			c-1.562,3.465-3.156,6.919-4.224,10.574c-0.576,1.977-0.968,4.008-1.441,6.014c-0.011,0.048-0.262,0.855-0.257,0.906
			C390.268,223.779,388.375,222.746,387.779,222.416z"/>
	</g>
	<g>
		<path fill="#991A00" d="M410.852,270.01c-3.605-2.002-7.453-3.404-11.364-4.656c-2.912-0.934-5.834-1.83-8.719-2.84
			c-2.528-0.887-4.922-2.068-7.041-3.748c-1.811-1.438-3.29-3.156-4.404-5.186c-0.061-0.113-0.151-0.211-0.229-0.316
			c-0.325-0.727-0.649-1.451-0.976-2.176c-0.011-0.078-0.01-0.158-0.036-0.23c-0.668-2.004-0.854-4.051-0.512-6.132
			c0.527-3.202,2.022-5.87,4.524-7.946c0.636-0.527,1.349-0.966,2.025-1.444c0.651-0.292,1.305-0.585,1.957-0.876
			c0.214-0.057,0.43-0.11,0.643-0.169c3.391-0.938,6.649-0.601,9.767,1.033c0.302,0.156,0.592,0.332,0.92,0.517
			c0.04-0.174,0.073-0.312,0.101-0.45c0.638-3.14,2.177-5.734,4.699-7.727c0.545-0.431,1.137-0.804,1.708-1.202
			c0.652-0.293,1.305-0.586,1.957-0.878c0.796-0.185,1.583-0.419,2.388-0.543c3.291-0.509,6.338,0.173,9.118,1.993
			c2.751,1.801,4.455,4.37,5.426,7.478c1.16,3.709,0.876,7.382-0.222,11.041c-0.865,2.871-2.089,5.601-3.32,8.328
			c-1.562,3.465-3.156,6.918-4.224,10.574c-0.576,1.977-0.968,4.008-1.441,6.014c-0.011,0.047-0.262,0.855-0.257,0.906
			C413.34,271.373,411.448,270.34,410.852,270.01z"/>
	</g>
	<g>
		<path fill="#991A00" d="M379.236,493.701c3.843-1.499,7.377-3.566,10.838-5.779c2.576-1.646,5.131-3.324,7.749-4.901
			c2.296-1.381,4.733-2.47,7.378-3.029c2.263-0.478,4.529-0.52,6.803-0.082c0.127,0.025,0.26,0.019,0.39,0.025
			c0.767,0.214,1.532,0.427,2.298,0.638c0.066,0.041,0.129,0.093,0.2,0.119c1.97,0.765,3.665,1.928,5.049,3.519
			c2.13,2.448,3.229,5.302,3.231,8.554c0.001,0.826-0.116,1.654-0.18,2.48c-0.191,0.688-0.383,1.379-0.574,2.066
			c-0.094,0.201-0.189,0.4-0.28,0.603c-1.44,3.21-3.78,5.503-7.027,6.86c-0.312,0.133-0.634,0.244-0.985,0.379
			c0.109,0.142,0.194,0.256,0.283,0.365c2.01,2.494,3.025,5.335,2.951,8.549c-0.017,0.693-0.107,1.387-0.164,2.081
			c-0.191,0.689-0.382,1.378-0.574,2.067c-0.365,0.73-0.687,1.486-1.104,2.185c-1.708,2.858-4.177,4.77-7.353,5.749
			c-3.143,0.969-6.208,0.643-9.221-0.594c-3.596-1.473-6.242-4.035-8.359-7.215c-1.658-2.498-2.979-5.184-4.293-7.871
			c-1.672-3.412-3.312-6.844-5.447-9.999c-1.154-1.705-2.469-3.302-3.711-4.946c-0.029-0.039-0.491-0.748-0.533-0.777
			C376.599,494.746,378.603,493.949,379.236,493.701z"/>
	</g>
	<g>
		<path fill="#991A00" d="M434.028,576.021c-2.289-3.432-5.067-6.439-7.972-9.344c-2.162-2.162-4.349-4.297-6.452-6.516
			c-1.842-1.945-3.429-4.092-4.543-6.555c-0.952-2.106-1.48-4.313-1.542-6.626c-0.002-0.129-0.038-0.258-0.058-0.387
			c0.043-0.795,0.087-1.588,0.128-2.381c0.026-0.074,0.063-0.145,0.074-0.221c0.324-2.088,1.095-3.994,2.352-5.688
			c1.935-2.605,4.485-4.293,7.66-4.994c0.807-0.178,1.641-0.24,2.462-0.357c0.713,0.039,1.428,0.078,2.141,0.117
			c0.216,0.049,0.433,0.1,0.649,0.145c3.443,0.719,6.186,2.51,8.21,5.391c0.196,0.275,0.374,0.566,0.581,0.879
			c0.115-0.135,0.208-0.244,0.296-0.354c2.005-2.5,4.561-4.102,7.715-4.719c0.682-0.133,1.378-0.193,2.069-0.287
			c0.713,0.039,1.428,0.076,2.142,0.115c0.792,0.201,1.599,0.354,2.371,0.611c3.159,1.055,5.556,3.055,7.194,5.945
			c1.621,2.861,1.96,5.926,1.4,9.133c-0.666,3.829-2.6,6.964-5.251,9.714c-2.084,2.156-4.421,4.023-6.765,5.885
			c-2.974,2.365-5.973,4.705-8.595,7.467c-1.418,1.494-2.695,3.121-4.034,4.688c-0.031,0.037-0.625,0.641-0.645,0.688
			C435.616,578.371,434.407,576.586,434.028,576.021z"/>
	</g>
	<g>
		<path fill="#991A00" d="M404.5,680.26c3.015,1.34,6.181,2.184,9.385,2.904c2.387,0.537,4.779,1.045,7.149,1.645
			c2.078,0.528,4.068,1.301,5.876,2.488c1.546,1.018,2.845,2.281,3.876,3.82c0.057,0.086,0.136,0.157,0.205,0.236
			c0.311,0.556,0.621,1.109,0.932,1.664c0.014,0.062,0.02,0.125,0.045,0.182c0.674,1.549,0.969,3.168,0.844,4.85
			c-0.193,2.59-1.198,4.821-3.043,6.652c-0.469,0.466-1.006,0.865-1.512,1.295c-0.498,0.279-0.998,0.559-1.496,0.836
			c-0.168,0.062-0.335,0.119-0.502,0.182c-2.635,0.988-5.255,0.949-7.855-0.132c-0.251-0.103-0.494-0.223-0.77-0.347
			c-0.02,0.141-0.036,0.254-0.049,0.366c-0.285,2.547-1.328,4.724-3.196,6.489c-0.404,0.383-0.849,0.722-1.276,1.08
			c-0.499,0.279-0.999,0.559-1.497,0.838c-0.622,0.203-1.233,0.445-1.865,0.602c-2.586,0.639-5.062,0.312-7.407-0.941
			c-2.32-1.24-3.859-3.168-4.853-5.574c-1.188-2.873-1.221-5.82-0.606-8.813c0.486-2.351,1.268-4.612,2.056-6.872
			c0.999-2.871,2.025-5.736,2.616-8.725c0.319-1.616,0.487-3.263,0.723-4.895c0.005-0.039,0.148-0.701,0.141-0.74
			C402.421,679.35,404.002,680.039,404.5,680.26z"/>
	</g>
	<g>
		<path fill="#991A00" d="M620.351,279.524c-0.057-0.056-1.296-0.521-1.363-0.553c-2.93-1.34-5.812-2.802-8.803-3.984
			c-5.533-2.188-11.325-3.53-17.096-4.923c-4.544-1.095-9.086-2.202-13.458-3.889c-5.568-2.15-10.372-5.32-13.838-10.307
			c-2.902-4.177-4.439-8.743-4.024-13.862c0.419-5.175,2.499-9.59,6.28-13.163c0.924-0.874,1.969-1.62,2.957-2.425
			c0.986-0.525,1.974-1.05,2.96-1.574c1.04-0.322,2.067-0.694,3.122-0.955c4.873-1.201,9.551-0.613,14.037,1.608
			c0.197,0.099,0.399,0.188,0.651,0.307c0.087-0.58,0.149-1.108,0.244-1.63c0.974-5.414,3.679-9.757,8.088-13.042
			c0.276-0.207,0.549-0.421,0.823-0.632c0.986-0.525,1.973-1.05,2.959-1.574c1.24-0.377,2.461-0.836,3.722-1.115
			c4.96-1.096,9.687-0.384,14.142,2.034c2.897,1.572,5.246,3.765,7.074,6.512c0.066,0.1,0.167,0.177,0.251,0.265
			c0.583,1.096,1.167,2.192,1.75,3.288c0.057,0.196,0.091,0.401,0.171,0.586c1.436,3.319,2.142,6.79,2.179,10.403
			c0.043,4.226-0.796,8.313-2.126,12.283c-1.516,4.526-3.21,8.993-4.851,13.477c-2.204,6.027-4.162,12.122-5.148,18.486
			C620.89,276.197,620.351,279.524,620.351,279.524z"/>
	</g>
	<g>
		<path fill="#991A00" d="M588.728,448.027c-0.005-0.08-0.603-1.262-0.632-1.33c-1.252-2.967-2.386-5.994-3.79-8.887
			c-2.597-5.354-5.956-10.26-9.265-15.188c-2.609-3.879-5.206-7.766-7.285-11.965c-2.648-5.35-4.045-10.933-3.227-16.95
			c0.686-5.039,2.642-9.443,6.409-12.934c3.808-3.529,8.325-5.375,13.528-5.451c1.271-0.019,2.545,0.138,3.817,0.213
			c1.081,0.28,2.163,0.561,3.245,0.842c0.984,0.466,1.992,0.886,2.945,1.408c4.402,2.41,7.451,6.006,9.254,10.677
			c0.079,0.206,0.168,0.409,0.273,0.666c0.456-0.368,0.859-0.715,1.281-1.035c4.379-3.331,9.309-4.701,14.777-4.14
			c0.344,0.035,0.689,0.061,1.034,0.091c1.082,0.28,2.163,0.561,3.245,0.841c1.168,0.561,2.377,1.048,3.495,1.695
			c4.396,2.547,7.396,6.267,9.043,11.061c1.071,3.117,1.319,6.321,0.809,9.581c-0.019,0.118,0.004,0.243,0.007,0.365
			c-0.312,1.202-0.623,2.404-0.936,3.605c-0.091,0.184-0.203,0.358-0.27,0.548c-1.188,3.416-3.014,6.45-5.43,9.138
			c-2.826,3.142-6.208,5.586-9.873,7.611c-4.176,2.31-8.445,4.454-12.686,6.649c-5.699,2.949-11.263,6.115-16.294,10.137
			C591.375,445.939,588.728,448.027,588.728,448.027z"/>
	</g>
	<g>
		<path fill="#991A00" d="M690.922,445.746c0.079,0.008,1.337-0.404,1.41-0.424c3.122-0.787,6.286-1.449,9.358-2.398
			c5.686-1.756,11.045-4.332,16.417-6.857c4.229-1.988,8.465-3.967,12.931-5.387c5.689-1.807,11.42-2.34,17.244-0.618
			c4.877,1.441,8.934,4.041,11.812,8.294c2.912,4.299,4.051,9.045,3.338,14.197c-0.174,1.26-0.522,2.496-0.79,3.742
			c-0.44,1.027-0.882,2.055-1.323,3.08c-0.609,0.902-1.179,1.836-1.838,2.699c-3.051,3.986-7.066,6.453-11.957,7.527
			c-0.215,0.047-0.43,0.104-0.699,0.17c0.296,0.506,0.577,0.957,0.829,1.424c2.628,4.832,3.235,9.912,1.852,15.232
			c-0.087,0.336-0.164,0.674-0.247,1.01c-0.44,1.025-0.881,2.053-1.322,3.078c-0.731,1.07-1.397,2.193-2.206,3.199
			c-3.184,3.959-7.315,6.361-12.304,7.262c-3.243,0.586-6.447,0.346-9.593-0.652c-0.114-0.037-0.241-0.033-0.362-0.049
			c-1.14-0.49-2.281-0.98-3.421-1.471c-0.167-0.119-0.322-0.258-0.501-0.35c-3.196-1.691-5.919-3.957-8.209-6.752
			c-2.678-3.27-4.581-6.982-6.027-10.912c-1.649-4.479-3.122-9.023-4.648-13.549c-2.053-6.08-4.338-12.059-7.552-17.643
			C692.583,448.678,690.922,445.746,690.922,445.746z"/>
	</g>
	<g>
		<path fill="#991A00" d="M496.738,714.543c0.012-0.096-0.441-1.617-0.461-1.705c-0.844-3.771-1.537-7.588-2.576-11.305
			c-1.922-6.875-4.84-13.387-7.693-19.914c-2.25-5.135-4.486-10.281-6.045-15.686c-1.984-6.883-2.438-13.773-0.184-20.703
			c1.887-5.805,5.135-10.586,10.33-13.904c5.252-3.352,10.98-4.564,17.139-3.543c1.506,0.248,2.979,0.707,4.465,1.066
			c1.217,0.562,2.434,1.127,3.65,1.689c1.062,0.76,2.164,1.473,3.178,2.291c4.684,3.787,7.516,8.686,8.645,14.586
			c0.049,0.26,0.109,0.518,0.18,0.844c0.617-0.338,1.168-0.66,1.734-0.949c5.883-2.994,11.996-3.561,18.336-1.727
			c0.398,0.113,0.799,0.219,1.199,0.328c1.219,0.562,2.436,1.125,3.652,1.688c1.26,0.912,2.584,1.746,3.766,2.748
			c4.646,3.947,7.393,8.98,8.312,14.994c0.6,3.908,0.207,7.746-1.094,11.486c-0.047,0.137-0.047,0.287-0.07,0.432
			c-0.625,1.352-1.248,2.705-1.875,4.057c-0.145,0.197-0.316,0.379-0.436,0.59c-2.131,3.779-4.936,6.973-8.363,9.629
			c-4.01,3.105-8.525,5.27-13.285,6.877c-5.426,1.834-10.924,3.455-16.402,5.139c-7.359,2.266-14.605,4.814-21.406,8.488
			C500.311,712.645,496.738,714.543,496.738,714.543z"/>
	</g>
	<g>
		<path fill="#991A00" d="M559.689,467.643c-0.108-0.037-2.006,0.125-2.115,0.125c-4.638,0.074-9.289-0.039-13.91,0.275
			c-8.547,0.584-16.908,2.428-25.273,4.191c-6.582,1.395-13.175,2.768-19.903,3.283c-8.571,0.656-16.777-0.488-24.372-4.824
			c-6.36-3.631-11.189-8.613-13.822-15.525c-2.66-6.986-2.689-14.014,0.01-21.002c0.658-1.709,1.557-3.326,2.341-4.987
			c0.957-1.292,1.915-2.585,2.874-3.877c1.15-1.063,2.255-2.184,3.465-3.176c5.591-4.582,12.035-6.717,19.243-6.606
			c0.317,0.006,0.636-0.004,1.038-0.007c-0.248-0.808-0.493-1.533-0.694-2.27c-2.086-7.641-1.263-14.962,2.435-21.965
			c0.23-0.44,0.452-0.885,0.678-1.329c0.958-1.296,1.914-2.588,2.873-3.881c1.377-1.258,2.681-2.612,4.145-3.756
			c5.769-4.498,12.354-6.499,19.644-6.116c4.739,0.249,9.151,1.643,13.229,4.081c0.15,0.089,0.326,0.126,0.49,0.188
			c1.438,1.062,2.875,2.126,4.311,3.19c0.197,0.219,0.369,0.465,0.587,0.654c3.922,3.425,6.991,7.498,9.278,12.173
			c2.672,5.469,4.116,11.301,4.846,17.284c0.835,6.824,1.4,13.68,2.045,20.527c0.871,9.199,2.102,18.334,4.762,27.221
			C558.329,462.982,559.689,467.643,559.689,467.643z"/>
	</g>
	<g>
		<path fill="#991A00" d="M499.86,146.531c0.113-0.019,1.717-1.047,1.812-1.099c4.068-2.228,8.236-4.296,12.177-6.73
			c7.289-4.501,13.826-10.032,20.403-15.491c5.173-4.304,10.364-8.592,16.076-12.187c7.276-4.577,15.068-7.393,23.81-7.098
			c7.319,0.246,13.914,2.401,19.467,7.288c5.611,4.94,8.914,11.143,9.785,18.583c0.215,1.819,0.174,3.669,0.255,5.504
			c-0.245,1.589-0.489,3.18-0.735,4.77c-0.521,1.478-0.977,2.983-1.584,4.425c-2.809,6.661-7.514,11.555-13.941,14.818
			c-0.284,0.143-0.562,0.299-0.916,0.49c0.597,0.599,1.151,1.126,1.673,1.684c5.408,5.786,8.094,12.646,8.089,20.565
			c0.002,0.497,0.013,0.993,0.021,1.492c-0.243,1.593-0.486,3.182-0.731,4.772c-0.632,1.755-1.154,3.562-1.916,5.255
			c-3.005,6.669-7.897,11.511-14.524,14.571c-4.308,1.989-8.861,2.814-13.606,2.559c-0.175-0.009-0.348,0.041-0.521,0.062
			c-1.768-0.27-3.535-0.541-5.302-0.812c-0.275-0.102-0.542-0.239-0.823-0.305c-5.066-1.201-9.682-3.374-13.885-6.442
			c-4.914-3.592-8.91-8.077-12.346-13.03c-3.921-5.647-7.618-11.448-11.381-17.204c-5.061-7.732-10.408-15.239-16.906-21.861
			C503.237,150.017,499.86,146.531,499.86,146.531z"/>
	</g>
	<g>
		<path fill="#991A00" d="M723.257,273.668c0.041-0.108-0.084-2.009-0.082-2.118c0.02-4.638,0.227-9.286,0.004-13.913
			c-0.41-8.557-2.088-16.954-3.68-25.353c-1.262-6.608-2.502-13.228-2.883-19.965c-0.484-8.584,0.824-16.765,5.314-24.271
			c3.756-6.286,8.836-11.014,15.799-13.506c7.041-2.52,14.064-2.407,20.998,0.433c1.695,0.691,3.295,1.622,4.939,2.439
			c1.271,0.983,2.545,1.968,3.818,2.951c1.039,1.172,2.137,2.299,3.104,3.529c4.469,5.682,6.474,12.167,6.218,19.372
			c-0.013,0.317-0.01,0.636-0.014,1.038c0.812-0.231,1.543-0.462,2.283-0.648c7.68-1.932,14.983-0.961,21.91,2.876
			c0.436,0.239,0.876,0.47,1.316,0.704c1.275,0.984,2.549,1.967,3.822,2.95c1.229,1.402,2.557,2.733,3.672,4.221
			c4.381,5.857,6.248,12.481,5.719,19.763c-0.345,4.732-1.826,9.116-4.347,13.144c-0.092,0.149-0.133,0.324-0.198,0.486
			c-1.092,1.418-2.184,2.833-3.277,4.246c-0.223,0.192-0.472,0.36-0.666,0.573c-3.502,3.853-7.637,6.839-12.356,9.032
			c-5.521,2.561-11.382,3.888-17.378,4.495c-6.84,0.698-13.706,1.126-20.562,1.633c-9.215,0.685-18.375,1.731-27.314,4.212
			C727.942,272.401,723.257,273.668,723.257,273.668z"/>
	</g>
	<g>
		<path fill="#991A00" d="M670.565,224.801c-0.043-0.107-1.402-1.441-1.475-1.523c-3.076-3.471-6.021-7.075-9.27-10.375
			c-6.012-6.105-12.857-11.248-19.645-16.446c-5.346-4.085-10.682-8.193-15.455-12.962c-6.082-6.076-10.56-13.046-12.216-21.634
			c-1.391-7.19-0.756-14.1,2.773-20.6c3.569-6.57,8.88-11.169,15.94-13.674c1.727-0.614,3.539-0.986,5.309-1.473
			c1.605-0.115,3.209-0.23,4.814-0.345c1.557,0.18,3.125,0.289,4.666,0.56c7.119,1.257,12.938,4.756,17.549,10.297
			c0.201,0.244,0.416,0.479,0.682,0.783c0.451-0.714,0.842-1.373,1.27-2.005c4.438-6.56,10.529-10.705,18.25-12.461
			c0.484-0.112,0.967-0.233,1.451-0.352c1.607-0.117,3.209-0.233,4.816-0.348c1.85,0.225,3.727,0.332,5.549,0.698
			c7.17,1.446,12.979,5.14,17.438,10.919c2.896,3.757,4.713,8.014,5.52,12.696c0.031,0.171,0.117,0.33,0.178,0.495
			c0.131,1.784,0.26,3.567,0.387,5.349c-0.037,0.292-0.111,0.583-0.113,0.871c-0.045,5.207-1.135,10.189-3.191,14.969
			c-2.41,5.59-5.895,10.485-9.959,14.935c-4.633,5.08-9.467,9.974-14.24,14.924c-6.414,6.653-12.541,13.537-17.553,21.345
			C673.212,220.733,670.565,224.801,670.565,224.801z"/>
	</g>
	<g>
		<path fill="#991A00" d="M525.218,260.053c0.035,0.11,1.288,1.544,1.354,1.631c2.803,3.696,5.464,7.514,8.451,11.052
			c5.527,6.546,11.961,12.196,18.33,17.897c5.018,4.482,10.025,8.985,14.422,14.104c5.6,6.522,9.532,13.815,10.529,22.504
			c0.836,7.275-0.324,14.115-4.34,20.328c-4.061,6.277-9.707,10.458-16.938,12.416c-1.769,0.48-3.603,0.713-5.405,1.063
			c-1.608-0.007-3.218-0.015-4.826-0.024c-1.539-0.298-3.095-0.525-4.611-0.914c-7.001-1.797-12.534-5.73-16.709-11.606
			c-0.184-0.259-0.38-0.511-0.62-0.833c-0.505,0.678-0.944,1.305-1.419,1.902c-4.926,6.202-11.316,9.869-19.149,11.031
			c-0.491,0.074-0.981,0.159-1.472,0.24c-1.612-0.006-3.219-0.013-4.829-0.021c-1.829-0.366-3.692-0.616-5.48-1.12
			c-7.039-1.989-12.548-6.115-16.552-12.219c-2.604-3.968-4.09-8.35-4.536-13.08c-0.018-0.174-0.092-0.338-0.138-0.507
			c0.005-1.788,0.012-3.576,0.021-5.364c0.061-0.287,0.156-0.572,0.181-0.859c0.44-5.188,1.909-10.072,4.325-14.682
			c2.828-5.389,6.676-10.003,11.068-14.131c5.008-4.711,10.201-9.222,15.34-13.792c6.901-6.144,13.537-12.541,19.131-19.942
			C522.267,263.906,525.218,260.053,525.218,260.053z"/>
	</g>
	<g>
		<path fill="#991A00" d="M550.07,497.633c-0.002,0.139,0.906,2.236,0.949,2.361c1.852,5.248,3.496,10.584,5.617,15.721
			c3.923,9.504,9.209,18.314,14.404,27.16c4.097,6.957,8.172,13.934,11.323,21.395c4.017,9.502,5.843,19.273,3.804,29.57
			c-1.703,8.621-5.533,16.016-12.394,21.646c-6.937,5.689-14.919,8.402-23.899,7.994c-2.197-0.096-4.378-0.502-6.566-0.762
			c-1.836-0.594-3.673-1.191-5.508-1.791c-1.649-0.904-3.345-1.732-4.936-2.732c-7.344-4.613-12.23-11.133-14.854-19.375
			c-0.114-0.363-0.247-0.723-0.402-1.18c-0.825,0.592-1.558,1.146-2.318,1.656c-7.898,5.287-16.542,7.143-25.921,5.604
			c-0.588-0.094-1.179-0.176-1.771-0.264c-1.84-0.596-3.674-1.191-5.51-1.789c-1.957-1.088-3.995-2.055-5.855-3.283
			c-7.316-4.85-12.105-11.58-14.447-20.02c-1.525-5.486-1.621-11.039-0.401-16.607c0.044-0.205,0.019-0.42,0.027-0.631
			c0.661-2.041,1.323-4.082,1.986-6.121c0.175-0.307,0.389-0.598,0.521-0.916c2.401-5.77,5.866-10.814,10.312-15.199
			c5.203-5.125,11.29-8.992,17.819-12.104c7.446-3.551,15.03-6.809,22.575-10.154c10.134-4.496,20.059-9.381,29.157-15.795
			C545.287,500.959,550.07,497.633,550.07,497.633z"/>
	</g>
	<g>
		<path fill="#991A00" d="M577.807,479.428c0.129,0.051,2.412-0.035,2.544-0.029c5.563,0.176,11.132,0.576,16.688,0.463
			c10.278-0.213,20.406-1.945,30.533-3.582c7.969-1.297,15.948-2.566,24.044-2.799c10.312-0.299,20.082,1.541,28.938,7.174
			c7.417,4.711,12.921,10.961,15.683,19.396c2.789,8.527,2.424,16.949-1.211,25.172c-0.886,2.014-2.056,3.898-3.09,5.844
			c-1.22,1.496-2.443,2.99-3.666,4.484c-1.44,1.209-2.828,2.488-4.336,3.609c-6.961,5.172-14.809,7.363-23.441,6.82
			c-0.38-0.025-0.762-0.031-1.245-0.051c0.252,0.982,0.505,1.867,0.704,2.76c2.063,9.277,0.66,18.006-4.173,26.189
			c-0.3,0.514-0.592,1.035-0.888,1.555c-1.223,1.498-2.441,2.992-3.664,4.486c-1.723,1.43-3.363,2.979-5.184,4.268
			c-7.17,5.061-15.18,7.086-23.894,6.209c-5.667-0.568-10.876-2.49-15.625-5.646c-0.175-0.115-0.384-0.168-0.576-0.254
			c-1.664-1.355-3.326-2.713-4.986-4.07c-0.223-0.273-0.416-0.578-0.665-0.816c-4.506-4.33-7.952-9.389-10.428-15.121
			c-2.891-6.707-4.287-13.781-4.821-20.994c-0.61-8.227-0.898-16.477-1.281-24.721c-0.518-11.074-1.473-22.094-4.153-32.9
			C579.172,485.09,577.807,479.428,577.807,479.428z"/>
	</g>
	<g>
		<path fill="#991A00" d="M659.479,440.197c0.05-0.158-0.27-2.883-0.275-3.041c-0.315-6.671-0.362-13.37-1.025-20.007
			c-1.225-12.275-4.256-24.228-7.172-36.187c-2.304-9.411-4.577-18.836-5.621-28.499c-1.334-12.307-0.057-24.168,5.844-35.296
			c4.935-9.319,11.892-16.494,21.72-20.595c9.938-4.144,20.049-4.504,30.228-0.933c2.492,0.869,4.857,2.09,7.283,3.144
			c1.904,1.318,3.81,2.64,5.71,3.962c1.585,1.608,3.246,3.146,4.729,4.844c6.846,7.839,10.21,17.02,10.377,27.398
			c0.005,0.457,0.034,0.915,0.055,1.493c1.152-0.394,2.187-0.779,3.236-1.102c10.903-3.347,21.477-2.493,31.725,2.514
			c0.643,0.312,1.293,0.61,1.943,0.915c1.908,1.32,3.811,2.639,5.714,3.96c1.873,1.925,3.882,3.74,5.595,5.796
			c6.733,8.1,9.912,17.488,9.688,27.997c-0.143,6.832-1.951,13.246-5.276,19.225c-0.121,0.221-0.165,0.476-0.249,0.714
			c-1.465,2.119-2.931,4.235-4.396,6.35c-0.307,0.293-0.654,0.553-0.916,0.873c-4.752,5.799-10.477,10.401-17.102,13.904
			c-7.75,4.092-16.08,6.434-24.658,7.753c-9.785,1.509-19.626,2.633-29.452,3.87c-13.2,1.668-26.292,3.852-38.964,8.083
			C666.124,438.029,659.479,440.197,659.479,440.197z"/>
	</g>
	<g>
		<path fill="#991A00" d="M755.571,302.963c0.061-0.019,0.859-0.714,0.907-0.751c2.056-1.554,4.18-3.027,6.147-4.685
			c3.642-3.065,6.789-6.633,9.959-10.168c2.497-2.784,5.002-5.562,7.85-8c3.629-3.104,7.685-5.283,12.512-5.829
			c4.043-0.458,7.842,0.193,11.289,2.43c3.485,2.26,5.803,5.401,6.884,9.42c0.265,0.982,0.394,2.001,0.584,3.003
			c-0.005,0.895-0.01,1.788-0.015,2.682c-0.168,0.855-0.297,1.72-0.514,2.561c-1.006,3.888-3.195,6.958-6.463,9.273
			c-0.145,0.102-0.285,0.21-0.463,0.343c0.375,0.281,0.723,0.526,1.055,0.791c3.441,2.742,5.473,6.296,6.111,10.647
			c0.041,0.274,0.088,0.547,0.132,0.82c-0.005,0.894-0.009,1.788-0.015,2.681c-0.205,1.016-0.347,2.051-0.629,3.045
			c-1.111,3.909-3.406,6.967-6.802,9.185c-2.208,1.442-4.644,2.264-7.271,2.509c-0.096,0.008-0.188,0.049-0.281,0.077
			c-0.993-0.007-1.987-0.013-2.979-0.018c-0.16-0.035-0.318-0.089-0.479-0.102c-2.883-0.25-5.594-1.071-8.153-2.417
			c-2.99-1.575-5.55-3.717-7.841-6.161c-2.611-2.788-5.113-5.677-7.648-8.535c-3.406-3.841-6.953-7.532-11.061-10.646
			C757.709,304.605,755.571,302.963,755.571,302.963z"/>
	</g>
	<g>
		<path fill="#991A00" d="M609.836,349.933c-0.016-0.061-0.662-0.898-0.697-0.949c-1.43-2.145-2.775-4.35-4.314-6.412
			c-2.846-3.814-6.223-7.166-9.564-10.541c-2.633-2.654-5.258-5.316-7.525-8.303c-2.885-3.806-4.822-7.984-5.084-12.834
			c-0.219-4.062,0.654-7.817,3.09-11.127c2.461-3.346,5.732-5.476,9.809-6.317c0.996-0.207,2.021-0.275,3.033-0.407
			c0.893,0.058,1.783,0.115,2.676,0.173c0.844,0.217,1.699,0.396,2.527,0.663c3.822,1.231,6.758,3.599,8.877,6.997
			c0.093,0.149,0.192,0.296,0.314,0.481c0.303-0.358,0.567-0.69,0.852-1.006c2.938-3.275,6.606-5.095,10.987-5.476
			c0.275-0.024,0.551-0.056,0.826-0.083c0.892,0.057,1.784,0.114,2.675,0.171c1.003,0.265,2.028,0.468,3.003,0.808
			c3.837,1.339,6.755,3.811,8.77,7.33c1.31,2.288,1.988,4.768,2.077,7.406c0.003,0.096,0.039,0.189,0.062,0.285
			c-0.066,0.992-0.131,1.982-0.194,2.974c-0.044,0.157-0.107,0.312-0.13,0.471c-0.418,2.863-1.398,5.522-2.891,7.998
			c-1.748,2.893-4.037,5.322-6.61,7.465c-2.937,2.443-5.968,4.771-8.971,7.135c-4.034,3.174-7.928,6.496-11.277,10.416
			C611.602,347.896,609.836,349.933,609.836,349.933z"/>
	</g>
	<g>
		<path fill="#991A00" d="M486.998,224.253c0.005-0.051-0.246-0.858-0.257-0.906c-0.474-2.006-0.865-4.037-1.441-6.014
			c-1.067-3.655-2.662-7.109-4.224-10.574c-1.231-2.726-2.455-5.456-3.32-8.327c-1.098-3.659-1.382-7.332-0.222-11.041
			c0.971-3.107,2.675-5.677,5.426-7.478c2.78-1.82,5.827-2.502,9.118-1.993c0.805,0.124,1.592,0.358,2.388,0.543
			c0.652,0.292,1.305,0.585,1.957,0.878c0.571,0.398,1.163,0.771,1.708,1.202c2.521,1.992,4.061,4.587,4.699,7.727
			c0.027,0.138,0.061,0.276,0.101,0.45c0.327-0.185,0.618-0.36,0.92-0.517c3.118-1.634,6.376-1.972,9.767-1.033
			c0.213,0.059,0.429,0.112,0.643,0.169c0.652,0.291,1.306,0.584,1.957,0.876c0.677,0.479,1.39,0.917,2.025,1.444
			c2.502,2.076,3.997,4.744,4.523,7.946c0.343,2.081,0.156,4.129-0.512,6.132c-0.025,0.072-0.025,0.153-0.036,0.23
			c-0.326,0.725-0.65,1.45-0.976,2.176c-0.078,0.105-0.168,0.203-0.229,0.316c-1.113,2.029-2.593,3.748-4.404,5.186
			c-2.118,1.68-4.512,2.862-7.04,3.748c-2.885,1.011-5.807,1.907-8.719,2.84c-3.911,1.252-7.759,2.654-11.364,4.656
			C488.891,223.22,486.998,224.253,486.998,224.253z"/>
	</g>
	<g>
		<path fill="#991A00" d="M463.926,271.847c0.004-0.051-0.246-0.859-0.258-0.906c-0.473-2.006-0.865-4.037-1.441-6.014
			c-1.066-3.656-2.662-7.109-4.223-10.574c-1.232-2.727-2.455-5.457-3.32-8.328c-1.098-3.659-1.383-7.332-0.223-11.041
			c0.971-3.107,2.676-5.677,5.426-7.478c2.781-1.82,5.828-2.502,9.119-1.993c0.805,0.124,1.592,0.358,2.387,0.543
			c0.652,0.292,1.305,0.585,1.957,0.878c0.572,0.398,1.164,0.771,1.709,1.202c2.521,1.992,4.061,4.587,4.698,7.727
			c0.028,0.138,0.062,0.276,0.101,0.45c0.328-0.185,0.619-0.36,0.92-0.517c3.118-1.634,6.377-1.972,9.768-1.033
			c0.213,0.059,0.428,0.112,0.643,0.169c0.651,0.291,1.305,0.584,1.957,0.876c0.676,0.479,1.389,0.917,2.025,1.444
			c2.501,2.076,3.996,4.744,4.523,7.946c0.342,2.081,0.156,4.128-0.512,6.132c-0.026,0.072-0.025,0.152-0.037,0.23
			c-0.326,0.725-0.65,1.449-0.975,2.176c-0.078,0.105-0.168,0.203-0.229,0.316c-1.114,2.029-2.594,3.748-4.404,5.186
			c-2.119,1.68-4.513,2.861-7.041,3.748c-2.885,1.01-5.807,1.906-8.719,2.84c-3.91,1.252-7.758,2.654-11.363,4.656
			C465.818,270.814,463.926,271.847,463.926,271.847z"/>
	</g>
	<g>
		<path fill="#991A00" d="M500.666,495.221c-0.041,0.029-0.504,0.738-0.533,0.777c-1.242,1.645-2.557,3.24-3.711,4.945
			c-2.135,3.156-3.775,6.588-5.447,10c-1.312,2.688-2.635,5.373-4.293,7.871c-2.117,3.18-4.764,5.742-8.359,7.215
			c-3.012,1.236-6.078,1.562-9.221,0.594c-3.176-0.98-5.645-2.891-7.352-5.75c-0.418-0.697-0.74-1.453-1.105-2.184
			c-0.191-0.689-0.383-1.379-0.574-2.068c-0.057-0.693-0.146-1.387-0.164-2.08c-0.074-3.215,0.941-6.055,2.951-8.549
			c0.09-0.109,0.174-0.225,0.283-0.365c-0.352-0.135-0.672-0.246-0.984-0.379c-3.248-1.357-5.588-3.65-7.027-6.861
			c-0.092-0.201-0.188-0.4-0.281-0.602c-0.191-0.688-0.383-1.379-0.574-2.066c-0.062-0.826-0.18-1.654-0.18-2.48
			c0.002-3.252,1.102-6.105,3.232-8.555c1.383-1.59,3.078-2.754,5.049-3.518c0.07-0.027,0.133-0.078,0.199-0.119
			c0.766-0.211,1.531-0.424,2.299-0.639c0.129-0.006,0.262,0,0.389-0.025c2.273-0.438,4.541-0.395,6.803,0.082
			c2.645,0.561,5.082,1.648,7.379,3.029c2.617,1.578,5.172,3.256,7.748,4.902c3.461,2.213,6.996,4.279,10.838,5.779
			C498.662,494.424,500.666,495.221,500.666,495.221z"/>
	</g>
	<g>
		<path fill="#991A00" d="M438.584,785.541c-0.02-0.047-0.613-0.65-0.645-0.688c-1.339-1.566-2.616-3.193-4.034-4.688
			c-2.622-2.762-5.621-5.102-8.595-7.467c-2.344-1.861-4.681-3.729-6.765-5.885c-2.651-2.75-4.585-5.885-5.251-9.713
			c-0.56-3.207-0.221-6.271,1.4-9.133c1.639-2.891,4.035-4.891,7.194-5.945c0.772-0.258,1.579-0.41,2.371-0.611
			c0.714-0.039,1.429-0.076,2.142-0.115c0.691,0.094,1.388,0.154,2.069,0.287c3.154,0.617,5.71,2.219,7.715,4.719
			c0.088,0.109,0.181,0.219,0.296,0.354c0.207-0.312,0.385-0.604,0.581-0.879c2.024-2.881,4.767-4.672,8.21-5.391
			c0.217-0.045,0.434-0.096,0.649-0.145c0.712-0.039,1.428-0.078,2.141-0.117c0.821,0.117,1.655,0.18,2.462,0.357
			c3.174,0.701,5.725,2.389,7.66,4.994c1.256,1.693,2.027,3.6,2.352,5.688c0.01,0.076,0.047,0.146,0.073,0.221
			c0.041,0.793,0.085,1.586,0.128,2.381c-0.02,0.129-0.056,0.258-0.058,0.387c-0.062,2.312-0.59,4.52-1.542,6.625
			c-1.114,2.463-2.701,4.609-4.543,6.555c-2.104,2.219-4.291,4.354-6.452,6.516c-2.904,2.904-5.683,5.912-7.972,9.344
			C439.793,783.756,438.584,785.541,438.584,785.541z"/>
	</g>
	<g>
		<path fill="#991A00" d="M474.845,679.824c-0.008,0.039,0.136,0.701,0.141,0.74c0.235,1.631,0.403,3.277,0.723,4.895
			c0.591,2.988,1.617,5.854,2.616,8.725c0.787,2.26,1.57,4.521,2.056,6.871c0.614,2.994,0.581,5.941-0.606,8.814
			c-0.994,2.406-2.533,4.334-4.854,5.574c-2.344,1.252-4.82,1.58-7.406,0.941c-0.633-0.156-1.243-0.398-1.865-0.602
			c-0.498-0.279-0.998-0.559-1.496-0.838c-0.428-0.359-0.873-0.697-1.276-1.08c-1.868-1.766-2.911-3.943-3.196-6.49
			c-0.012-0.111-0.029-0.225-0.049-0.365c-0.275,0.123-0.518,0.244-0.77,0.346c-2.6,1.082-5.221,1.121-7.855,0.133
			c-0.166-0.062-0.334-0.121-0.502-0.182c-0.498-0.277-0.998-0.557-1.496-0.836c-0.506-0.43-1.043-0.83-1.512-1.295
			c-1.846-1.832-2.85-4.062-3.043-6.652c-0.125-1.682,0.17-3.301,0.844-4.85c0.025-0.057,0.031-0.121,0.045-0.182
			c0.311-0.555,0.621-1.109,0.932-1.664c0.07-0.08,0.148-0.15,0.205-0.236c1.031-1.539,2.33-2.803,3.877-3.82
			c1.807-1.188,3.797-1.961,5.875-2.488c2.371-0.6,4.763-1.107,7.149-1.645c3.204-0.721,6.37-1.564,9.386-2.904
			C473.264,680.514,474.845,679.824,474.845,679.824z"/>
	</g>
	<g>
		<path fill="#991A00" d="M435.957,323.554c-2.289-3.432-5.067-6.439-7.972-9.344c-2.162-2.162-4.349-4.297-6.452-6.516
			c-1.842-1.945-3.429-4.092-4.543-6.555c-0.952-2.106-1.48-4.313-1.542-6.626c-0.002-0.129-0.038-0.258-0.058-0.387
			c0.043-0.795,0.087-1.588,0.128-2.381c0.026-0.074,0.063-0.145,0.074-0.221c0.324-2.088,1.095-3.994,2.352-5.688
			c1.935-2.605,4.485-4.293,7.66-4.994c0.807-0.178,1.641-0.24,2.462-0.357c0.713,0.039,1.428,0.078,2.141,0.117
			c0.216,0.049,0.433,0.1,0.649,0.145c3.443,0.719,6.186,2.51,8.21,5.391c0.196,0.275,0.374,0.566,0.581,0.879
			c0.115-0.135,0.208-0.244,0.296-0.354c2.005-2.5,4.561-4.102,7.715-4.719c0.682-0.133,1.378-0.193,2.069-0.287
			c0.713,0.039,1.428,0.076,2.142,0.115c0.792,0.201,1.599,0.354,2.371,0.611c3.159,1.055,5.556,3.055,7.194,5.945
			c1.621,2.861,1.96,5.926,1.4,9.133c-0.666,3.829-2.6,6.964-5.251,9.714c-2.084,2.156-4.421,4.023-6.765,5.885
			c-2.974,2.365-5.973,4.705-8.595,7.467c-1.418,1.494-2.695,3.121-4.034,4.688c-0.031,0.037-0.625,0.641-0.645,0.688
			C437.545,325.903,436.336,324.118,435.957,323.554z"/>
	</g>
	<g>
		<path fill="#991A00" d="M435.592,427.667c-3.849-5.164-8.429-9.635-13.197-13.932c-3.547-3.195-7.135-6.352-10.59-9.643
			c-3.033-2.887-5.687-6.108-7.625-9.863c-1.656-3.211-2.656-6.608-2.939-10.214c-0.016-0.201-0.081-0.398-0.123-0.598
			c0.002-1.241,0.006-2.484,0.008-3.725c0.034-0.117,0.087-0.232,0.099-0.352c0.331-3.283,1.382-6.32,3.207-9.064
			c2.807-4.221,6.651-7.061,11.548-8.412c1.245-0.343,2.539-0.509,3.812-0.755c1.117,0.002,2.234,0.004,3.352,0.007
			c0.341,0.059,0.682,0.12,1.023,0.174c5.434,0.842,9.856,3.415,13.249,7.745c0.328,0.417,0.629,0.854,0.979,1.326
			c0.166-0.223,0.303-0.396,0.432-0.576c2.926-4.062,6.785-6.77,11.654-7.987c1.055-0.263,2.137-0.415,3.207-0.616
			c1.117,0.002,2.234,0.004,3.352,0.007c1.25,0.249,2.523,0.42,3.748,0.76c5.014,1.39,8.918,4.319,11.709,8.697
			c2.76,4.331,3.537,9.086,2.926,14.135c-0.732,6.028-3.494,11.076-7.41,15.582c-3.076,3.536-6.572,6.64-10.078,9.731
			c-4.449,3.931-8.939,7.827-12.807,12.348c-2.092,2.444-3.953,5.085-5.916,7.64c-0.047,0.059-0.924,1.049-0.947,1.126
			C438.262,431.209,436.229,428.52,435.592,427.667z"/>
	</g>
	<g>
		<path fill="#991A00" d="M437.6,668.407c-3.85-5.164-8.429-9.635-13.197-13.932c-3.547-3.195-7.135-6.352-10.59-9.643
			c-3.033-2.887-5.687-6.108-7.625-9.863c-1.656-3.211-2.656-6.608-2.939-10.214c-0.016-0.201-0.081-0.398-0.123-0.598
			c0.002-1.241,0.006-2.484,0.008-3.725c0.034-0.117,0.087-0.232,0.099-0.352c0.331-3.283,1.382-6.32,3.207-9.064
			c2.807-4.221,6.651-7.061,11.548-8.412c1.245-0.343,2.539-0.509,3.812-0.755c1.117,0.002,2.234,0.004,3.352,0.007
			c0.341,0.059,0.682,0.12,1.023,0.174c5.434,0.842,9.856,3.414,13.249,7.745c0.328,0.417,0.629,0.854,0.979,1.326
			c0.166-0.223,0.303-0.396,0.432-0.576c2.926-4.062,6.785-6.77,11.654-7.987c1.055-0.263,2.137-0.414,3.207-0.615
			c1.117,0.002,2.234,0.004,3.352,0.007c1.25,0.249,2.523,0.42,3.748,0.76c5.014,1.39,8.918,4.319,11.709,8.697
			c2.76,4.331,3.537,9.086,2.926,14.135c-0.732,6.028-3.494,11.076-7.41,15.582c-3.076,3.536-6.572,6.64-10.078,9.731
			c-4.449,3.931-8.939,7.827-12.807,12.348c-2.092,2.444-3.953,5.085-5.916,7.64c-0.047,0.059-0.924,1.049-0.947,1.126
			C440.27,671.949,438.236,669.26,437.6,668.407z"/>
	</g>
	<g>
		<path fill="#991A00" d="M216.505,278.412c-0.042-0.03-0.865-0.227-0.911-0.241c-1.965-0.619-3.91-1.322-5.905-1.837
			c-3.687-0.952-7.47-1.347-11.245-1.777c-2.975-0.336-5.945-0.681-8.855-1.405c-3.706-0.927-7.008-2.56-9.602-5.453
			c-2.174-2.423-3.511-5.202-3.652-8.487c-0.143-3.32,0.83-6.286,2.949-8.855c0.52-0.628,1.123-1.185,1.688-1.775
			c0.584-0.412,1.171-0.822,1.756-1.233c0.635-0.287,1.258-0.604,1.906-0.853c3.002-1.148,6.018-1.145,9.043-0.087
			c0.133,0.046,0.27,0.09,0.438,0.143c0.01-0.375,0.007-0.715,0.026-1.053c0.19-3.516,1.566-6.488,4.105-8.923
			c0.16-0.153,0.316-0.311,0.475-0.467c0.582-0.41,1.169-0.823,1.753-1.234c0.759-0.336,1.499-0.725,2.276-1.001
			c3.063-1.087,6.121-1.009,9.143,0.175c1.963,0.771,3.628,1.979,5.01,3.577c0.048,0.059,0.117,0.099,0.178,0.148
			c0.455,0.651,0.913,1.3,1.371,1.951c0.051,0.12,0.089,0.249,0.156,0.359c1.173,1.994,1.895,4.145,2.203,6.435
			c0.361,2.679,0.152,5.341-0.379,7.966c-0.607,2.996-1.331,5.966-2.018,8.945c-0.924,4.002-1.686,8.025-1.809,12.148
			C216.584,276.257,216.505,278.412,216.505,278.412z"/>
	</g>
	<g>
		<path fill="#991A00" d="M657.792,275.578c-0.123-4.123-0.885-8.146-1.809-12.148c-0.687-2.979-1.41-5.949-2.018-8.945
			c-0.531-2.625-0.74-5.287-0.379-7.966c0.309-2.29,1.03-4.441,2.203-6.435c0.067-0.11,0.105-0.239,0.156-0.359
			c0.458-0.651,0.916-1.3,1.371-1.951c0.061-0.049,0.13-0.089,0.178-0.148c1.382-1.599,3.047-2.807,5.01-3.577
			c3.021-1.184,6.079-1.262,9.143-0.175c0.777,0.276,1.518,0.666,2.276,1.001c0.584,0.411,1.171,0.824,1.753,1.234
			c0.158,0.156,0.314,0.314,0.475,0.467c2.539,2.435,3.915,5.407,4.105,8.923c0.02,0.337,0.017,0.678,0.026,1.053
			c0.169-0.053,0.306-0.097,0.438-0.143c3.025-1.057,6.041-1.061,9.043,0.087c0.648,0.249,1.271,0.566,1.906,0.853
			c0.585,0.411,1.172,0.822,1.756,1.233c0.564,0.59,1.168,1.147,1.688,1.775c2.119,2.569,3.092,5.535,2.949,8.855
			c-0.142,3.285-1.479,6.063-3.652,8.487c-2.594,2.893-5.896,4.525-9.602,5.453c-2.91,0.724-5.881,1.068-8.855,1.404
			c-3.775,0.43-7.559,0.825-11.245,1.777c-1.995,0.516-3.94,1.218-5.905,1.837c-0.046,0.015-0.869,0.212-0.911,0.241
			C657.893,278.412,657.813,276.258,657.792,275.578z"/>
	</g>
</g>
</svg>
